<?xml version="1.0" standalone="no"?>
<!DOCTYPE svg PUBLIC "-//W3C//DTD SVG 20010904//EN"
 "http://www.w3.org/TR/2001/REC-SVG-20010904/DTD/svg10.dtd">
<svg version="1.0" xmlns="http://www.w3.org/2000/svg"
 width="512.000000pt" height="512.000000pt" viewBox="0 0 512.000000 512.000000"
 preserveAspectRatio="xMidYMid meet">
<metadata>
Created by potrace 1.14, written by Peter Selinger 2001-2017
</metadata>
<g transform="translate(0.000000,512.000000) scale(0.100000,-0.100000)"
fill="#000000" stroke="none">
<path d="M669 4896 c-2 -20 -8 -1186 -13 -2517 l-5 -1325 464 0 465 -1 1 26
c1 35 8 1735 13 2883 1 510 0 931 -3 936 -9 13 -921 11 -922 -2z"/>
<path d="M2450 4876 c-24 -56 -142 -320 -160 -361 -10 -22 -64 -143 -120 -270
-56 -126 -112 -252 -125 -280 -12 -27 -37 -84 -55 -125 -18 -41 -44 -100 -57
-130 -163 -358 -303 -687 -300 -700 3 -8 84 -202 182 -430 l176 -415 -25 -75
c-66 -201 -81 -309 -81 -575 1 -160 8 -281 20 -325 2 -8 6 -31 9 -50 61 -396
297 -721 638 -879 78 -37 212 -85 268 -97 214 -45 333 -57 550 -58 114 0 350
10 425 18 131 14 175 21 283 42 149 29 336 91 449 147 l83 41 -2 625 -3 626
-375 0 -375 -1 -3 -474 c-1 -261 -6 -478 -10 -482 -19 -19 -190 -40 -327 -41
-186 0 -320 28 -452 94 -202 101 -322 287 -375 577 -28 160 -31 458 -4 582 55
262 176 436 368 529 145 70 252 93 438 94 266 2 421 -49 640 -211 14 -10 21
-9 41 11 13 12 62 56 109 97 47 41 90 80 96 85 6 6 44 39 84 75 41 36 96 85
123 110 l49 45 -79 56 c-122 88 -253 149 -413 193 -72 20 -86 23 -325 61 -65
11 -422 13 -520 3 -74 -7 -189 -26 -323 -54 -82 -17 -351 -118 -388 -145 -6
-5 -30 32 -64 102 l-55 110 63 122 c34 67 81 156 103 197 22 41 72 136 111
210 39 74 81 153 93 175 12 22 47 87 77 145 31 58 79 150 108 205 119 225 144
274 185 350 23 44 65 124 94 178 28 53 74 139 101 191 28 52 50 99 50 103 0 6
-212 9 -493 10 l-494 0 -13 -31z"/>
</g>
</svg>
